<svg width="50" height="50" viewBox="0 0 50 50" fill="none" xmlns="http://www.w3.org/2000/svg">
<rect x="10" y="5" width="30" height="38" fill="white"/>
<path d="M3.7342 0C3.27462 0 2.93224 0.374514 2.97306 0.832134L6.8472 44.2873C6.88802 44.745 7.28353 45.2201 7.72651 45.343L24.1664 49.9077C24.6093 50.0307 25.3338 50.0307 25.7768 49.908L42.2667 45.3358C42.7096 45.213 43.1056 44.738 43.1463 44.2803L47.0269 0.832134C47.068 0.374514 46.7253 0 46.2657 0H3.7342ZM38.7764 9.96627C38.7398 10.3745 38.6765 11.0832 38.6357 11.5409L38.5336 12.681C38.4925 13.1386 38.434 13.793 38.4032 14.135C38.3724 14.4772 38.3432 14.7572 38.3378 14.7572C38.3326 14.7572 37.9523 14.7572 37.4928 14.7572H25.8355C25.3759 14.7572 24.9961 14.7572 24.9912 14.7572C24.9862 14.7572 24.606 14.7572 24.1464 14.7572H18.0069C17.5474 14.7572 17.205 15.1317 17.2458 15.5894L17.6039 19.5923C17.6447 20.0498 18.0543 20.4244 18.5138 20.4244H24.1465C24.6061 20.4244 24.9862 20.4244 24.9913 20.4244C24.9963 20.4244 25.3761 20.4244 25.8356 20.4244H35.5175C35.9771 20.4244 36.6882 20.4244 37.0978 20.4244C37.5071 20.4244 37.8118 20.7585 37.7747 21.1667C37.7374 21.5749 37.6737 22.2838 37.633 22.7413L36.4816 35.6467C36.4404 36.1044 36.3885 36.6891 36.3661 36.9461C36.3433 37.203 35.9624 37.5136 35.5195 37.6365L25.8052 40.33C25.3623 40.4527 24.9945 40.5542 24.9875 40.5558C24.9807 40.5573 24.6129 40.4579 24.1699 40.3351L14.4452 37.6367C14.0023 37.5138 13.6066 37.0388 13.5659 36.5811L12.9399 29.5552C12.8991 29.0974 13.2419 28.7229 13.7014 28.7229H14.5889C15.0485 28.7229 15.8005 28.7229 16.26 28.7229H17.5834C18.043 28.7229 18.4522 29.0974 18.4933 29.5552L18.7388 32.3056C18.7796 32.7633 19.1758 33.2356 19.6195 33.3555L24.1683 34.5839C24.6118 34.7037 24.9764 34.8018 24.9785 34.8018C24.9805 34.8018 25.345 34.7035 25.7886 34.5837L30.3456 33.3523C30.789 33.2325 31.1856 32.76 31.2267 32.3024L31.7209 26.792C31.762 26.3342 31.4196 25.9597 30.96 25.9597H25.8356C25.376 25.9597 24.9962 25.9597 24.9913 25.9597C24.9863 25.9597 24.6061 25.9597 24.1465 25.9597H13.4537C12.9941 25.9597 12.5849 25.5851 12.5441 25.1276L11.3316 11.541C11.2908 11.0833 11.2275 10.3748 11.1909 9.96637C11.1547 9.55816 11.5006 9.22408 11.9602 9.22408H24.1465C24.6061 9.22408 24.9862 9.22408 24.9913 9.22408C24.9963 9.22408 25.3761 9.22408 25.8356 9.22408H38.0072C38.4666 9.22388 38.8128 9.55787 38.7764 9.96627Z" fill="#DD512A"/>
</svg>
